<svg width="145" height="32" viewBox="0 0 145 32" fill="none" xmlns="http://www.w3.org/2000/svg">
<g clip-path="url(#clip0_84_5213)">
<path d="M31.0502 28.1834C31.0502 28.1834 31.3578 28.1797 31.5626 28.3275C31.5626 28.3275 32.1734 27.1208 29.9798 24.9729C29.9798 24.9729 30.2835 24.84 30.6819 24.9692C30.6819 24.9692 30.6198 23.1302 28.3427 21.4475C28.3427 21.4475 28.6781 21.3283 28.8448 21.3896C28.8448 21.3896 27.9606 19.7473 25.6605 18.8692C25.6605 18.8692 26.0019 18.6797 26.4346 18.6872C26.4346 18.6872 24.719 16.7042 21.7386 16.8766C21.7386 16.8766 21.8954 16.6995 22.2141 16.5887C22.2141 16.5887 21.7331 16.2717 20.5869 16.1332C19.9766 16.001 19.2032 15.9661 19.2032 15.9661C19.4528 15.9593 19.975 15.8164 20.2794 15.7271C21.5382 15.5958 22.7558 15.2794 23.343 14.592C23.343 14.592 23.0899 14.6707 22.7283 14.3338C22.7283 14.3338 25.337 14.0901 27.2397 11.6594C27.2397 11.6594 26.5818 11.9139 26.1891 11.6463C26.1891 11.6463 28.5517 10.7256 29.1133 9.04282C29.1133 9.04282 28.6656 9.32317 28.1437 9.2625C28.1437 9.2625 29.5878 8.29386 30.1267 6.62573C30.1267 6.62573 29.6826 6.85568 29.3334 6.71815C29.3334 6.71815 30.9958 5.56686 30.7718 3.84335C30.7718 3.84335 30.5101 4.23448 29.9635 4.09788C29.9635 4.09788 31.703 2.25146 30.9693 0.514575C30.9693 0.514575 29.679 0.35215 28.5101 1.42969C28.5101 1.42969 28.5062 1.13067 28.6582 0.931527C28.6582 0.931527 27.4173 0.337525 25.2083 2.47052C25.2083 2.47052 25.0717 2.17523 25.2045 1.78784C25.2045 1.78784 23.3133 1.8482 21.5827 4.06241C21.5827 4.06241 21.4602 3.73631 21.5232 3.5742C21.5232 3.5742 19.8342 4.43393 18.9312 6.67054C18.9312 6.67054 18.7363 6.33853 18.744 5.91785C18.744 5.91785 16.7046 7.58597 16.8819 10.4841C16.8819 10.4841 16.6998 10.3316 16.5859 10.0217C16.5859 10.0217 16.3472 10.364 16.1888 11.1609C16.0336 11.8613 15.9603 12.8424 15.9603 12.8424C15.9645 12.3206 15.6822 11.4082 15.5677 11.0597C15.3971 10.0687 15.0733 9.17257 14.4867 8.69867C14.4867 8.69867 14.5677 8.9448 14.2211 9.29641C14.2211 9.29641 13.9706 6.75984 11.4707 4.90969C11.4707 4.90969 11.7325 5.54944 11.4573 5.93123C11.4573 5.93123 10.5104 3.63394 8.77984 3.08786C8.77984 3.08786 9.06816 3.52317 9.00576 4.03067C9.00576 4.03067 8.0096 2.62641 6.29408 2.10242C6.29408 2.10242 6.53056 2.53431 6.3888 2.87378C6.3888 2.87378 5.2048 1.25731 3.43232 1.47512C3.43232 1.47512 3.83456 1.72965 3.69408 2.26111C3.69408 2.26111 1.7952 0.56965 0.00896286 1.28314C0.00896286 1.28314 -0.158077 2.53773 0.950083 3.67439C0.950083 3.67439 0.642563 3.67813 0.437763 3.53033C0.437763 3.53033 -0.173117 4.737 2.02048 6.88493C2.02048 6.88493 1.7168 7.01779 1.3184 6.88866C1.3184 6.88866 1.38048 8.72761 3.6576 10.4104C3.6576 10.4104 3.32224 10.5295 3.15552 10.4682C3.15552 10.4682 4.03968 12.1105 6.33984 12.9886C6.33984 12.9886 5.9984 13.1781 5.56576 13.1706C5.56576 13.1706 7.28128 15.1537 10.2618 14.9813C10.2618 14.9813 10.105 15.1583 9.78624 15.2691C9.78624 15.2691 10.0141 15.4191 10.528 15.5575C11.2083 15.808 13.4662 15.8871 13.4662 15.8871C13.1171 15.9446 12.6006 16.0834 12.0675 16.243C10.7018 16.3535 9.328 16.6628 8.69248 17.4068C8.69248 17.4068 8.9456 17.328 9.3072 17.665C9.3072 17.665 6.69856 17.9087 4.79584 20.3394C4.79584 20.3394 5.45376 20.0849 5.8464 20.3525C5.8464 20.3525 3.48384 21.2732 2.92224 22.956C2.92224 22.956 3.36992 22.6756 3.89184 22.7363C3.89184 22.7363 2.44768 23.7049 1.9088 25.3731C1.9088 25.3731 2.35296 25.1431 2.70208 25.2806C2.70208 25.2806 1.03968 26.4319 1.26368 28.1554C1.26368 28.1554 1.52544 27.7643 2.072 27.9009C2.072 27.9009 0.332483 29.7473 1.06624 31.4842C1.06624 31.4842 2.35648 31.6466 3.52544 30.5691C3.52544 30.5691 3.52928 30.8681 3.37728 31.0673C3.37728 31.0673 4.61824 31.6613 6.8272 29.5283C6.8272 29.5283 6.96384 29.8236 6.83104 30.211C6.83104 30.211 8.72224 30.1506 10.4528 27.9364C10.4528 27.9364 10.5754 28.2625 10.5123 28.4246C10.5123 28.4246 12.2013 27.5649 13.1043 25.3282C13.1043 25.3282 13.2992 25.6603 13.2915 26.0809C13.2915 26.0809 15.3309 24.4128 15.1536 21.5147C15.1536 21.5147 15.3357 21.6672 15.4496 21.9771C15.4496 21.9771 16.0634 21.0968 15.9741 18.8723C16.0973 19.3341 16.2266 19.779 16.3456 20.1711C16.48 21.3983 16.8051 22.5863 17.5139 23.1585C17.5139 23.1585 17.433 22.9124 17.7795 22.5608C17.7795 22.5608 18.0301 25.0974 20.5299 26.9475C20.5299 26.9475 20.2682 26.3078 20.5434 25.926C20.5434 25.926 21.4902 28.2233 23.2208 28.7694C23.2208 28.7694 22.9325 28.334 22.9949 27.8265C22.9949 27.8265 23.991 29.2308 25.7066 29.7548C25.7066 29.7548 25.4701 29.3229 25.6118 28.9834C25.6118 28.9834 26.7958 30.5999 28.5683 30.3821C28.5683 30.3821 28.1661 30.1276 28.3066 29.5961C28.3066 29.5961 30.2054 31.2876 31.9917 30.5741C31.9917 30.5741 32.1587 29.3195 31.0506 28.1828L31.0502 28.1834ZM15.9866 16.6133C12.1971 18.9498 4.62912 27.1022 4.62912 27.1022C5.71712 24.4719 11.6077 18.1311 15.591 15.9549C13.1498 12.2555 4.8336 4.95637 4.8336 4.95637C7.53344 6.01213 14.0342 11.72 16.2845 15.593C20.3357 13.3536 27.6029 4.9601 27.6029 4.9601C27.2643 7.03273 20.279 14.2336 16.6429 16.2433C18.9046 20.1733 27.6048 27.2954 27.6048 27.2954C25.4682 26.9653 18.033 20.1418 15.9866 16.6133Z" fill="url(#paint0_linear_84_5213)"/>
<path d="M31.0502 28.1834C31.0502 28.1834 31.3578 28.1797 31.5626 28.3275C31.5626 28.3275 32.1734 27.1208 29.9798 24.9729C29.9798 24.9729 30.2835 24.84 30.6819 24.9692C30.6819 24.9692 30.6198 23.1302 28.3427 21.4475C28.3427 21.4475 28.6781 21.3283 28.8448 21.3896C28.8448 21.3896 27.9606 19.7473 25.6605 18.8692C25.6605 18.8692 26.0019 18.6797 26.4346 18.6872C26.4346 18.6872 24.719 16.7042 21.7386 16.8766C21.7386 16.8766 21.8954 16.6995 22.2141 16.5887C22.2141 16.5887 21.7331 16.2717 20.5869 16.1332C19.9766 16.001 19.2032 15.9661 19.2032 15.9661C19.4528 15.9593 19.975 15.8164 20.2794 15.7271C21.5382 15.5958 22.7558 15.2794 23.343 14.592C23.343 14.592 23.0899 14.6707 22.7283 14.3338C22.7283 14.3338 25.337 14.0901 27.2397 11.6594C27.2397 11.6594 26.5818 11.9139 26.1891 11.6463C26.1891 11.6463 28.5517 10.7256 29.1133 9.04282C29.1133 9.04282 28.6656 9.32317 28.1437 9.2625C28.1437 9.2625 29.5878 8.29386 30.1267 6.62573C30.1267 6.62573 29.6826 6.85568 29.3334 6.71815C29.3334 6.71815 30.9958 5.56686 30.7718 3.84335C30.7718 3.84335 30.5101 4.23448 29.9635 4.09788C29.9635 4.09788 31.703 2.25146 30.9693 0.514575C30.9693 0.514575 29.679 0.35215 28.5101 1.42969C28.5101 1.42969 28.5062 1.13067 28.6582 0.931527C28.6582 0.931527 27.4173 0.337525 25.2083 2.47052C25.2083 2.47052 25.0717 2.17523 25.2045 1.78784C25.2045 1.78784 23.3133 1.8482 21.5827 4.06241C21.5827 4.06241 21.4602 3.73631 21.5232 3.5742C21.5232 3.5742 19.8342 4.43393 18.9312 6.67054C18.9312 6.67054 18.7363 6.33853 18.744 5.91785C18.744 5.91785 16.7046 7.58597 16.8819 10.4841C16.8819 10.4841 16.6998 10.3316 16.5859 10.0217C16.5859 10.0217 16.3472 10.364 16.1888 11.1609C16.0336 11.8613 15.9603 12.8424 15.9603 12.8424C15.9645 12.3206 15.6822 11.4082 15.5677 11.0597C15.3971 10.0687 15.0733 9.17257 14.4867 8.69867C14.4867 8.69867 14.5677 8.9448 14.2211 9.29641C14.2211 9.29641 13.9706 6.75984 11.4707 4.90969C11.4707 4.90969 11.7325 5.54944 11.4573 5.93123C11.4573 5.93123 10.5104 3.63394 8.77984 3.08786C8.77984 3.08786 9.06816 3.52317 9.00576 4.03067C9.00576 4.03067 8.0096 2.62641 6.29408 2.10242C6.29408 2.10242 6.53056 2.53431 6.3888 2.87378C6.3888 2.87378 5.2048 1.25731 3.43232 1.47512C3.43232 1.47512 3.83456 1.72965 3.69408 2.26111C3.69408 2.26111 1.7952 0.56965 0.00896286 1.28314C0.00896286 1.28314 -0.158077 2.53773 0.950083 3.67439C0.950083 3.67439 0.642563 3.67813 0.437763 3.53033C0.437763 3.53033 -0.173117 4.737 2.02048 6.88493C2.02048 6.88493 1.7168 7.01779 1.3184 6.88866C1.3184 6.88866 1.38048 8.72761 3.6576 10.4104C3.6576 10.4104 3.32224 10.5295 3.15552 10.4682C3.15552 10.4682 4.03968 12.1105 6.33984 12.9886C6.33984 12.9886 5.9984 13.1781 5.56576 13.1706C5.56576 13.1706 7.28128 15.1537 10.2618 14.9813C10.2618 14.9813 10.105 15.1583 9.78624 15.2691C9.78624 15.2691 10.0141 15.4191 10.528 15.5575C11.2083 15.808 13.4662 15.8871 13.4662 15.8871C13.1171 15.9446 12.6006 16.0834 12.0675 16.243C10.7018 16.3535 9.328 16.6628 8.69248 17.4068C8.69248 17.4068 8.9456 17.328 9.3072 17.665C9.3072 17.665 6.69856 17.9087 4.79584 20.3394C4.79584 20.3394 5.45376 20.0849 5.8464 20.3525C5.8464 20.3525 3.48384 21.2732 2.92224 22.956C2.92224 22.956 3.36992 22.6756 3.89184 22.7363C3.89184 22.7363 2.44768 23.7049 1.9088 25.3731C1.9088 25.3731 2.35296 25.1431 2.70208 25.2806C2.70208 25.2806 1.03968 26.4319 1.26368 28.1554C1.26368 28.1554 1.52544 27.7643 2.072 27.9009C2.072 27.9009 0.332483 29.7473 1.06624 31.4842C1.06624 31.4842 2.35648 31.6466 3.52544 30.5691C3.52544 30.5691 3.52928 30.8681 3.37728 31.0673C3.37728 31.0673 4.61824 31.6613 6.8272 29.5283C6.8272 29.5283 6.96384 29.8236 6.83104 30.211C6.83104 30.211 8.72224 30.1506 10.4528 27.9364C10.4528 27.9364 10.5754 28.2625 10.5123 28.4246C10.5123 28.4246 12.2013 27.5649 13.1043 25.3282C13.1043 25.3282 13.2992 25.6603 13.2915 26.0809C13.2915 26.0809 15.3309 24.4128 15.1536 21.5147C15.1536 21.5147 15.3357 21.6672 15.4496 21.9771C15.4496 21.9771 16.0634 21.0968 15.9741 18.8723C16.0973 19.3341 16.2266 19.779 16.3456 20.1711C16.48 21.3983 16.8051 22.5863 17.5139 23.1585C17.5139 23.1585 17.433 22.9124 17.7795 22.5608C17.7795 22.5608 18.0301 25.0974 20.5299 26.9475C20.5299 26.9475 20.2682 26.3078 20.5434 25.926C20.5434 25.926 21.4902 28.2233 23.2208 28.7694C23.2208 28.7694 22.9325 28.334 22.9949 27.8265C22.9949 27.8265 23.991 29.2308 25.7066 29.7548C25.7066 29.7548 25.4701 29.3229 25.6118 28.9834C25.6118 28.9834 26.7958 30.5999 28.5683 30.3821C28.5683 30.3821 28.1661 30.1276 28.3066 29.5961C28.3066 29.5961 30.2054 31.2876 31.9917 30.5741C31.9917 30.5741 32.1587 29.3195 31.0506 28.1828L31.0502 28.1834ZM15.9866 16.6133C12.1971 18.9498 4.62912 27.1022 4.62912 27.1022C5.71712 24.4719 11.6077 18.1311 15.591 15.9549C13.1498 12.2555 4.8336 4.95637 4.8336 4.95637C7.53344 6.01213 14.0342 11.72 16.2845 15.593C20.3357 13.3536 27.6029 4.9601 27.6029 4.9601C27.2643 7.03273 20.279 14.2336 16.6429 16.2433C18.9046 20.1733 27.6048 27.2954 27.6048 27.2954C25.4682 26.9653 18.033 20.1418 15.9866 16.6133Z" fill="url(#paint1_linear_84_5213)"/>
</g>
<path d="M48.6875 22.7402C47.4896 22.7402 46.4609 22.4772 45.6016 21.9512C44.7474 21.4251 44.0885 20.6986 43.625 19.7715C43.1667 18.8392 42.9375 17.7663 42.9375 16.5527C42.9375 15.334 43.1719 14.2585 43.6406 13.3262C44.1094 12.3887 44.7708 11.6595 45.625 11.1387C46.4844 10.6126 47.5 10.3496 48.6719 10.3496C49.6458 10.3496 50.5078 10.5293 51.2578 10.8887C52.013 11.2428 52.6146 11.7454 53.0625 12.3965C53.5104 13.0423 53.7656 13.7975 53.8281 14.6621H51.125C51.0156 14.084 50.7552 13.6022 50.3438 13.2168C49.9375 12.8262 49.3932 12.6309 48.7109 12.6309C48.1328 12.6309 47.625 12.7871 47.1875 13.0996C46.75 13.4069 46.4089 13.8496 46.1641 14.4277C45.9245 15.0059 45.8047 15.6986 45.8047 16.5059C45.8047 17.3236 45.9245 18.0267 46.1641 18.6152C46.4036 19.1986 46.7396 19.6491 47.1719 19.9668C47.6094 20.2793 48.1224 20.4355 48.7109 20.4355C49.1276 20.4355 49.5 20.3574 49.8281 20.2012C50.1615 20.0397 50.4401 19.8079 50.6641 19.5059C50.888 19.2038 51.0417 18.8366 51.125 18.4043H53.8281C53.7604 19.2533 53.5104 20.0059 53.0781 20.6621C52.6458 21.3132 52.0573 21.8236 51.3125 22.1934C50.5677 22.5579 49.6927 22.7402 48.6875 22.7402ZM55.7104 22.5059V10.5059H58.4526V12.5059H58.5776C58.7963 11.8132 59.1713 11.2793 59.7026 10.9043C60.239 10.5241 60.851 10.334 61.5385 10.334C61.6948 10.334 61.8692 10.3418 62.062 10.3574C62.2599 10.3678 62.4239 10.3861 62.5541 10.4121V13.0137C62.4343 12.972 62.2442 12.9355 61.9838 12.9043C61.7286 12.8678 61.4812 12.8496 61.2416 12.8496C60.726 12.8496 60.2625 12.9616 59.851 13.1855C59.4448 13.4043 59.1245 13.709 58.8901 14.0996C58.6557 14.4902 58.5385 14.9408 58.5385 15.4512V22.5059H55.7104ZM68.7333 22.7402C67.5614 22.7402 66.5458 22.4824 65.6864 21.9668C64.827 21.4512 64.1604 20.7298 63.6864 19.8027C63.2177 18.8757 62.9833 17.7923 62.9833 16.5527C62.9833 15.3132 63.2177 14.2272 63.6864 13.2949C64.1604 12.3626 64.827 11.6387 65.6864 11.123C66.5458 10.6074 67.5614 10.3496 68.7333 10.3496C69.9052 10.3496 70.9208 10.6074 71.7802 11.123C72.6395 11.6387 73.3036 12.3626 73.7723 13.2949C74.2463 14.2272 74.4833 15.3132 74.4833 16.5527C74.4833 17.7923 74.2463 18.8757 73.7723 19.8027C73.3036 20.7298 72.6395 21.4512 71.7802 21.9668C70.9208 22.4824 69.9052 22.7402 68.7333 22.7402ZM68.7489 20.4746C69.3843 20.4746 69.9156 20.3001 70.3427 19.9512C70.7697 19.597 71.0874 19.123 71.2958 18.5293C71.5093 17.9355 71.6161 17.2741 71.6161 16.5449C71.6161 15.8105 71.5093 15.1465 71.2958 14.5527C71.0874 13.9538 70.7697 13.4772 70.3427 13.123C69.9156 12.7689 69.3843 12.5918 68.7489 12.5918C68.0979 12.5918 67.5562 12.7689 67.1239 13.123C66.6968 13.4772 66.3765 13.9538 66.163 14.5527C65.9546 15.1465 65.8505 15.8105 65.8505 16.5449C65.8505 17.2741 65.9546 17.9355 66.163 18.5293C66.3765 19.123 66.6968 19.597 67.1239 19.9512C67.5562 20.3001 68.0979 20.4746 68.7489 20.4746ZM85.928 13.6777L83.3499 13.959C83.277 13.6986 83.1494 13.4538 82.9671 13.2246C82.79 12.9954 82.5504 12.8105 82.2484 12.6699C81.9463 12.5293 81.5765 12.459 81.139 12.459C80.5504 12.459 80.0557 12.5866 79.6546 12.8418C79.2588 13.097 79.0635 13.4277 79.0687 13.834C79.0635 14.1829 79.1911 14.4668 79.4515 14.6855C79.7171 14.9043 80.1546 15.084 80.764 15.2246L82.8109 15.6621C83.9463 15.9069 84.79 16.2949 85.3421 16.8262C85.8994 17.3574 86.1807 18.0527 86.1859 18.9121C86.1807 19.6673 85.9593 20.334 85.5218 20.9121C85.0895 21.485 84.4879 21.9329 83.7171 22.2559C82.9463 22.5788 82.0609 22.7402 81.0609 22.7402C79.5921 22.7402 78.4098 22.4329 77.514 21.8184C76.6182 21.1986 76.0843 20.3366 75.9124 19.2324L78.6702 18.9668C78.7952 19.5085 79.0609 19.9173 79.4671 20.1934C79.8734 20.4694 80.402 20.6074 81.053 20.6074C81.7249 20.6074 82.264 20.4694 82.6702 20.1934C83.0817 19.9173 83.2874 19.5762 83.2874 19.1699C83.2874 18.8262 83.1546 18.5423 82.889 18.3184C82.6286 18.0944 82.2223 17.9225 81.6702 17.8027L79.6234 17.373C78.4723 17.1335 77.6208 16.7298 77.0687 16.1621C76.5166 15.5892 76.2432 14.8652 76.2484 13.9902C76.2432 13.2507 76.4437 12.61 76.8499 12.0684C77.2614 11.5215 77.8317 11.0996 78.5609 10.8027C79.2952 10.5007 80.1416 10.3496 81.0999 10.3496C82.5062 10.3496 83.6129 10.6491 84.4202 11.248C85.2327 11.847 85.7353 12.6569 85.928 13.6777ZM97.5623 13.6777L94.9841 13.959C94.9112 13.6986 94.7836 13.4538 94.6013 13.2246C94.4242 12.9954 94.1847 12.8105 93.8826 12.6699C93.5805 12.5293 93.2107 12.459 92.7732 12.459C92.1847 12.459 91.6899 12.5866 91.2888 12.8418C90.893 13.097 90.6977 13.4277 90.7029 13.834C90.6977 14.1829 90.8253 14.4668 91.0857 14.6855C91.3513 14.9043 91.7888 15.084 92.3982 15.2246L94.4451 15.6621C95.5805 15.9069 96.4242 16.2949 96.9763 16.8262C97.5336 17.3574 97.8149 18.0527 97.8201 18.9121C97.8149 19.6673 97.5935 20.334 97.156 20.9121C96.7237 21.485 96.1222 21.9329 95.3513 22.2559C94.5805 22.5788 93.6951 22.7402 92.6951 22.7402C91.2263 22.7402 90.044 22.4329 89.1482 21.8184C88.2524 21.1986 87.7185 20.3366 87.5466 19.2324L90.3045 18.9668C90.4295 19.5085 90.6951 19.9173 91.1013 20.1934C91.5076 20.4694 92.0362 20.6074 92.6873 20.6074C93.3591 20.6074 93.8982 20.4694 94.3045 20.1934C94.7159 19.9173 94.9216 19.5762 94.9216 19.1699C94.9216 18.8262 94.7888 18.5423 94.5232 18.3184C94.2628 18.0944 93.8565 17.9225 93.3045 17.8027L91.2576 17.373C90.1065 17.1335 89.255 16.7298 88.7029 16.1621C88.1508 15.5892 87.8774 14.8652 87.8826 13.9902C87.8774 13.2507 88.0779 12.61 88.4841 12.0684C88.8956 11.5215 89.4659 11.0996 90.1951 10.8027C90.9295 10.5007 91.7758 10.3496 92.7341 10.3496C94.1404 10.3496 95.2472 10.6491 96.0545 11.248C96.867 11.847 97.3696 12.6569 97.5623 13.6777ZM99.7121 22.5059V10.5059H102.415V12.5449H102.556C102.806 11.8574 103.22 11.321 103.798 10.9355C104.376 10.5449 105.066 10.3496 105.868 10.3496C106.681 10.3496 107.366 10.5475 107.923 10.9434C108.486 11.334 108.881 11.8678 109.111 12.5449H109.236C109.501 11.8783 109.949 11.347 110.579 10.9512C111.215 10.5501 111.967 10.3496 112.837 10.3496C113.941 10.3496 114.842 10.6986 115.54 11.3965C116.238 12.0944 116.587 13.1126 116.587 14.4512V22.5059H113.751V14.8887C113.751 14.1439 113.553 13.5996 113.157 13.2559C112.762 12.9069 112.277 12.7324 111.704 12.7324C111.022 12.7324 110.488 12.946 110.103 13.373C109.723 13.7949 109.532 14.3444 109.532 15.0215V22.5059H106.759V14.7715C106.759 14.1517 106.571 13.6569 106.196 13.2871C105.827 12.9173 105.342 12.7324 104.743 12.7324C104.337 12.7324 103.967 12.8366 103.634 13.0449C103.301 13.248 103.035 13.5371 102.837 13.9121C102.639 14.2819 102.54 14.7142 102.54 15.209V22.5059H99.7121ZM119.016 22.5059V10.5059H121.844V22.5059H119.016ZM120.438 8.80273C119.99 8.80273 119.605 8.6543 119.282 8.35742C118.959 8.05534 118.798 7.69336 118.798 7.27148C118.798 6.8444 118.959 6.48242 119.282 6.18555C119.605 5.88346 119.99 5.73242 120.438 5.73242C120.891 5.73242 121.277 5.88346 121.594 6.18555C121.917 6.48242 122.079 6.8444 122.079 7.27148C122.079 7.69336 121.917 8.05534 121.594 8.35742C121.277 8.6543 120.891 8.80273 120.438 8.80273ZM127.141 15.4746V22.5059H124.313V10.5059H127.016V12.5449H127.156C127.432 11.873 127.872 11.3392 128.477 10.9434C129.086 10.5475 129.839 10.3496 130.734 10.3496C131.563 10.3496 132.284 10.5267 132.899 10.8809C133.518 11.235 133.997 11.748 134.336 12.4199C134.68 13.0918 134.849 13.9069 134.844 14.8652V22.5059H132.016V15.3027C132.016 14.5007 131.807 13.873 131.391 13.4199C130.979 12.9668 130.409 12.7402 129.68 12.7402C129.185 12.7402 128.745 12.8496 128.359 13.0684C127.979 13.2819 127.68 13.5918 127.461 13.998C127.247 14.4043 127.141 14.8965 127.141 15.4746ZM143.271 10.5059V12.6934H136.373V10.5059H143.271ZM138.076 7.63086H140.904V18.8965C140.904 19.2767 140.961 19.5684 141.076 19.7715C141.195 19.9694 141.352 20.1048 141.544 20.1777C141.737 20.2507 141.951 20.2871 142.185 20.2871C142.362 20.2871 142.524 20.2741 142.669 20.248C142.82 20.222 142.935 20.1986 143.013 20.1777L143.49 22.3887C143.339 22.4408 143.123 22.498 142.841 22.5605C142.565 22.623 142.227 22.6595 141.826 22.6699C141.117 22.6908 140.479 22.584 139.912 22.3496C139.344 22.11 138.893 21.7402 138.56 21.2402C138.232 20.7402 138.07 20.1152 138.076 19.3652V7.63086Z" fill="#090B0C"/>
<defs>
<linearGradient id="paint0_linear_84_5213" x1="0.446083" y1="0.858094" x2="30.6297" y2="31.899" gradientUnits="userSpaceOnUse">
<stop offset="0.2" stop-color="#00FF85"/>
<stop offset="1" stop-color="#00E0FF"/>
</linearGradient>
<linearGradient id="paint1_linear_84_5213" x1="-2.63518e-06" y1="8" x2="30.8369" y2="32.466" gradientUnits="userSpaceOnUse">
<stop stop-color="#32E1CC"/>
<stop offset="1" stop-color="#2CC785"/>
</linearGradient>
<clipPath id="clip0_84_5213">
<rect width="32" height="30.9874" fill="white" transform="translate(0 0.505859)"/>
</clipPath>
</defs>
</svg>
